<?xml version="1.0" standalone="no"?><!DOCTYPE svg PUBLIC "-//W3C//DTD SVG 1.1//EN" "http://www.w3.org/Graphics/SVG/1.1/DTD/svg11.dtd"><svg class="icon" width="40px" height="40.00px" viewBox="0 0 1024 1024" version="1.1" xmlns="http://www.w3.org/2000/svg"><path d="M58.18714 261.513847 489.750985 506.066692C497.230148 510.304885 506.385346 510.304885 513.86451 506.066692L945.428356 261.513847C962.456593 251.864512 961.814227 227.116685 944.308329 218.363735L512.744484 2.581813C505.859648-0.860604 497.755846-0.860604 490.871012 2.581813L59.307167 218.363735C41.801269 227.116685 41.158901 251.864512 58.18714 261.513847L58.18714 261.513847ZM82.300665 218.960567 81.180638 262.110679 512.744484 46.328756 490.871012 46.328756 922.434857 262.110679 921.314829 218.960567 489.750985 463.513412 513.86451 463.513412 82.300665 218.960567 82.300665 218.960567Z" fill="#ffffff" /><path d="M477.352463 504.929698 477.352463 974.793958C477.352463 993.514057 497.526411 1005.2927 513.828779 996.090807L974.163548 736.254285C981.846246 731.917777 986.597801 723.77952 986.597801 714.957436L986.597801 398.477284C986.597801 384.971004 975.648796 374.021999 962.142515 374.021999 948.636235 374.021999 937.687232 384.971004 937.687232 398.477284L937.687232 714.957436 950.121483 693.660589 489.786716 953.497111 526.263031 974.793958 526.263031 504.929698C526.263031 491.423418 515.314029 480.474415 501.807748 480.474415 488.301468 480.474415 477.352463 491.423418 477.352463 504.929698L477.352463 504.929698Z" fill="#ffffff" /><path d="M514.421935 953.842987 82.858091 694.006466 94.699187 714.957436 94.699187 254.622669C94.699187 241.116388 83.750183 230.167383 70.243903 230.167383 56.737622 230.167383 45.788618 241.116388 45.788618 254.622669L45.788618 714.957436C45.788618 723.534342 50.281834 731.484386 57.629714 735.908407L489.193559 995.74493C500.764461 1002.711554 515.792096 998.979049 522.758718 987.408147 529.725342 975.837246 525.992838 960.809611 514.421935 953.842987L514.421935 953.842987Z" fill="#ffffff" /><path d="M172.745454 448.218441 316.60007 534.531209C328.181609 541.480132 343.203518 537.724655 350.152444 526.143115 357.101367 514.561577 353.34589 499.539667 341.76435 492.590741L197.909735 406.277973C186.328194 399.32905 171.306285 403.084527 164.357361 414.666067 157.408437 426.247607 161.163914 441.269517 172.745454 448.218441L172.745454 448.218441Z" fill="#ffffff" /></svg>