<?xml version="1.0" standalone="no"?><!DOCTYPE svg PUBLIC "-//W3C//DTD SVG 1.1//EN" "http://www.w3.org/Graphics/SVG/1.1/DTD/svg11.dtd"><svg t="1486561745723" class="icon" style="" viewBox="0 0 1024 1024" version="1.1" xmlns="http://www.w3.org/2000/svg" p-id="2318" xmlns:xlink="http://www.w3.org/1999/xlink" width="32" height="32"><defs><style type="text/css"></style></defs><path d="M950.950264 490.688625c0-16.699334-13.538341-30.237675-30.237675-30.237675-16.70138 0-30.239721 13.538341-30.239721 30.237675 0 1.843998 0.191358 3.640923 0.50756 5.39487l-0.344854 0.00614c0.224104 5.383614 0.36532 10.788717 0.36532 16.226566 0 211.67805-171.480536 383.278313-383.00816 383.278313-211.531717 0-383.010207-171.59924-383.010207-383.278313S296.462039 129.035842 507.993756 129.035842c100.868315 0 192.602599 39.050388 261.005502 102.831017l-99.117438 99.116415 221.398436 0L891.280256 109.587907l-79.784114 79.783091C732.172515 114.532523 625.298416 68.623937 507.676531 68.623937c-244.698095 0-443.063955 198.507076-443.063955 443.376063S262.97946 955.376063 507.676531 955.376063c244.696048 0 443.063955-198.507076 443.063955-443.376063 0-5.285377-0.130983-10.540054-0.319272-15.780405C950.753789 494.423693 950.950264 492.580718 950.950264 490.688625z" p-id="2319" fill="#f4ea2a"></path></svg>