<?xml version="1.0" standalone="no"?><!DOCTYPE svg PUBLIC "-//W3C//DTD SVG 1.1//EN" "http://www.w3.org/Graphics/SVG/1.1/DTD/svg11.dtd"><svg t="1504754218087" class="icon" style="" viewBox="0 0 1024 1024" version="1.1" xmlns="http://www.w3.org/2000/svg" p-id="2224" xmlns:xlink="http://www.w3.org/1999/xlink" width="24" height="24"><defs><style type="text/css"></style></defs><path d="M538.566466 1023.088677C536.442301 1023.088677 534.296495 1023.023404 532.085637 1022.915658 453.644248 1018.970174 421.998927 952.558642 416.233425 918.008283 414.28268 906.196423 422.259039 895.03283 434.050197 893.061207 445.754623 890.980048 456.938872 898.999774 458.976262 910.7477 459.474802 913.435546 471.374332 976.44435 534.296495 979.608784 596.069881 983.532361 611.155621 913.196806 611.740847 910.227299 614.038393 898.479817 625.504392 890.741755 637.208818 893.19086 648.95661 895.510313 656.586167 906.932765 654.245257 918.658784 646.962498 955.441417 613.474848 1023.088677 538.566466 1023.088677L538.566466 1023.088677 538.566466 1023.088677ZM57.238985 822.166923C57.304035 822.166923 57.412408 823.856889 58.582842 825.092617 60.663619 827.26051 66.819288 829.60142 77.851798 829.60142L950.850912 829.60142C961.710045 829.60142 966.283453 827.325335 967.063743 826.54518L966.110074 823.445575 966.131714 779.748846 967.367175 777.191547C967.540597 772.487369 965.524846 743.638623 900.998697 683.68606 808.577021 597.831903 751.355358 380.042583 751.355358 227.472879 751.355358 104.749804 551.079467 86.716376 549.042032 86.564816L472.724766 86.629643C472.464656 86.716376 272.167125 104.749804 272.167125 227.472879 272.167125 361.185187 227.365126 591.133746 127.704015 683.68606 61.573964 745.112647 57.195664 774.980288 56.935551 779.748846L57.434073 781.179502 57.195664 822.275117C57.217324 822.210291 57.217324 822.166923 57.238985 822.166923L57.238985 822.166923ZM77.851798 872.950767C54.507951 872.950767 36.929651 866.318332 25.63703 853.270294 15.753293 841.825937 13.239004 827.585537 14.084298 818.004607L14.084298 787.009876C11.439979 770.797407 16.07841 728.227767 98.204521 651.932186 178.878427 576.980527 228.817333 373.25814 228.817333 227.472879 228.817333 64.889919 461.085347 44.146738 470.969083 43.345123L480.023302 43.337722 480.023302 18.029115C480.023302 8.560067 487.691443 0.883887 497.162607 0.883887L519.306723 0.883887C528.7725 0.883887 536.446027 8.563604 536.446027 18.025761L536.446027 43.291599 550.819354 43.27985C562.480459 44.146738 794.705104 64.889919 794.705104 227.472879 794.705104 371.545823 849.282468 576.482033 930.498212 651.932186 1011.86574 727.51244 1013.989862 770.732132 1009.481507 788.20224L1009.481507 816.617765C1011.453889 826.610008 1010.478541 840.67694 1001.851903 852.381501 991.751467 866.015212 974.584928 872.950767 950.850912 872.950767L77.851798 872.950767Z" p-id="2225" fill="#d81e06"></path></svg>